<svg id="Budget_icon" data-name="Budget icon" xmlns="http://www.w3.org/2000/svg" width="1em" height="1em" viewBox="0 0 34.378 44">
  <g id="Grupo_8" data-name="Grupo 8" transform="translate(3.59 3.674)">
    <g id="Grupo_7" data-name="Grupo 7">
      <path id="Trazado_33" data-name="Trazado 33" d="M18.014,11.211V8.817c.5.166.808.5.808.812a.673.673,0,1,0,1.346,0A2.419,2.419,0,0,0,18.014,7.4V7.286a.673.673,0,1,0-1.346,0V7.4a2.419,2.419,0,0,0-2.154,2.233,2.779,2.779,0,0,0,2.154,2.551v2.394c-.5-.166-.808-.5-.808-.812a.673.673,0,1,0-1.346,0A2.419,2.419,0,0,0,16.668,16V16.1a.673.673,0,1,0,1.346,0V16a2.419,2.419,0,0,0,2.154-2.233A2.779,2.779,0,0,0,18.014,11.211Zm-1.346-.534c-.671-.337-.808-.631-.808-1.048,0-.311.312-.645.808-.812Zm1.346,3.9v-1.86c.671.337.808.631.808,1.048C18.822,14.073,18.51,14.408,18.014,14.574Z" transform="translate(-14.513 -6.597)" fill="currentColor"/>
    </g>
  </g>
  <g id="Grupo_10" data-name="Grupo 10" transform="translate(10.771 5.144)">
    <g id="Grupo_9" data-name="Grupo 9">
      <path id="Trazado_34" data-name="Trazado 34" d="M34.126,9.236H28.381a.689.689,0,0,0,0,1.378h5.745a.689.689,0,0,0,0-1.378Z" transform="translate(-27.708 -9.236)" fill="currentColor"/>
    </g>
  </g>
  <g id="Grupo_12" data-name="Grupo 12" transform="translate(10.771 11.023)">
    <g id="Grupo_11" data-name="Grupo 11">
      <path id="Trazado_35" data-name="Trazado 35" d="M29.1,19.791h-.718a.689.689,0,0,0,0,1.378H29.1a.689.689,0,0,0,0-1.378Z" transform="translate(-27.708 -19.791)" fill="currentColor"/>
    </g>
  </g>
  <g id="Grupo_14" data-name="Grupo 14" transform="translate(3.59 16.167)">
    <g id="Grupo_13" data-name="Grupo 13">
      <path id="Trazado_36" data-name="Trazado 36" d="M35.293,29.027H15.187a.689.689,0,0,0,0,1.378H35.293a.689.689,0,0,0,0-1.378Z" transform="translate(-14.513 -29.027)" fill="currentColor"/>
    </g>
  </g>
  <g id="Grupo_16" data-name="Grupo 16" transform="translate(7.899 20.576)">
    <g id="Grupo_15" data-name="Grupo 15">
      <path id="Trazado_37" data-name="Trazado 37" d="M25.257,36.943H23.1a.689.689,0,0,0,0,1.378h2.154a.689.689,0,0,0,0-1.378Z" transform="translate(-22.43 -36.943)" fill="currentColor"/>
    </g>
  </g>
  <g id="Grupo_18" data-name="Grupo 18" transform="translate(3.59 20.576)">
    <g id="Grupo_17" data-name="Grupo 17">
      <path id="Trazado_38" data-name="Trazado 38" d="M16.623,36.943H15.187a.689.689,0,0,0,0,1.378h1.436a.689.689,0,0,0,0-1.378Z" transform="translate(-14.513 -36.943)" fill="currentColor"/>
    </g>
  </g>
  <g id="Grupo_20" data-name="Grupo 20" transform="translate(7.899 23.516)">
    <g id="Grupo_19" data-name="Grupo 19">
      <path id="Trazado_39" data-name="Trazado 39" d="M25.257,42.221H23.1a.689.689,0,0,0,0,1.378h2.154a.689.689,0,0,0,0-1.378Z" transform="translate(-22.43 -42.221)" fill="currentColor"/>
    </g>
  </g>
  <g id="Grupo_22" data-name="Grupo 22" transform="translate(3.59 23.516)">
    <g id="Grupo_21" data-name="Grupo 21">
      <path id="Trazado_40" data-name="Trazado 40" d="M16.623,42.221H15.187a.689.689,0,0,0,0,1.378h1.436a.689.689,0,0,0,0-1.378Z" transform="translate(-14.513 -42.221)" fill="currentColor"/>
    </g>
  </g>
  <g id="Grupo_24" data-name="Grupo 24" transform="translate(7.899 26.455)">
    <g id="Grupo_23" data-name="Grupo 23">
      <path id="Trazado_41" data-name="Trazado 41" d="M25.257,47.5H23.1a.689.689,0,0,0,0,1.378h2.154a.689.689,0,0,0,0-1.378Z" transform="translate(-22.43 -47.499)" fill="currentColor"/>
    </g>
  </g>
  <g id="Grupo_26" data-name="Grupo 26" transform="translate(3.59 26.455)">
    <g id="Grupo_25" data-name="Grupo 25">
      <path id="Trazado_42" data-name="Trazado 42" d="M16.623,47.5H15.187a.689.689,0,0,0,0,1.378h1.436a.689.689,0,0,0,0-1.378Z" transform="translate(-14.513 -47.499)" fill="currentColor"/>
    </g>
  </g>
  <g id="Grupo_28" data-name="Grupo 28" transform="translate(7.899 29.394)">
    <g id="Grupo_27" data-name="Grupo 27">
      <path id="Trazado_43" data-name="Trazado 43" d="M25.257,52.776H23.1a.689.689,0,0,0,0,1.378h2.154a.689.689,0,0,0,0-1.378Z" transform="translate(-22.43 -52.776)" fill="currentColor"/>
    </g>
  </g>
  <g id="Grupo_30" data-name="Grupo 30" transform="translate(3.59 29.394)">
    <g id="Grupo_29" data-name="Grupo 29">
      <path id="Trazado_44" data-name="Trazado 44" d="M16.623,52.776H15.187a.689.689,0,0,0,0,1.378h1.436a.689.689,0,0,0,0-1.378Z" transform="translate(-14.513 -52.776)" fill="currentColor"/>
    </g>
  </g>
  <g id="Grupo_32" data-name="Grupo 32" transform="translate(7.899 32.334)">
    <g id="Grupo_31" data-name="Grupo 31">
      <path id="Trazado_45" data-name="Trazado 45" d="M25.257,58.054H23.1a.689.689,0,0,0,0,1.378h2.154a.689.689,0,0,0,0-1.378Z" transform="translate(-22.43 -58.054)" fill="currentColor"/>
    </g>
  </g>
  <g id="Grupo_34" data-name="Grupo 34" transform="translate(3.59 32.334)">
    <g id="Grupo_33" data-name="Grupo 33">
      <path id="Trazado_46" data-name="Trazado 46" d="M16.623,58.054H15.187a.689.689,0,0,0,0,1.378h1.436a.689.689,0,0,0,0-1.378Z" transform="translate(-14.513 -58.054)" fill="currentColor"/>
    </g>
  </g>
  <g id="Grupo_36" data-name="Grupo 36" transform="translate(17.952 11.023)">
    <g id="Grupo_35" data-name="Grupo 35">
      <path id="Trazado_47" data-name="Trazado 47" d="M42.293,19.791h-.718a.689.689,0,0,0,0,1.378h.718a.689.689,0,0,0,0-1.378Z" transform="translate(-40.902 -19.791)" fill="currentColor"/>
    </g>
  </g>
  <g id="Grupo_38" data-name="Grupo 38" transform="translate(21.542 11.023)">
    <g id="Grupo_37" data-name="Grupo 37" transform="translate(0)">
      <path id="Trazado_48" data-name="Trazado 48" d="M48.89,19.791h-.718a.689.689,0,0,0,0,1.378h.718a.689.689,0,0,0,0-1.378Z" transform="translate(-47.499 -19.791)" fill="currentColor"/>
    </g>
  </g>
  <g id="Grupo_40" data-name="Grupo 40" transform="translate(14.362 11.023)">
    <g id="Grupo_39" data-name="Grupo 39">
      <path id="Trazado_49" data-name="Trazado 49" d="M35.7,19.791h-.718a.689.689,0,0,0,0,1.378H35.7a.689.689,0,0,0,0-1.378Z" transform="translate(-34.305 -19.791)" fill="currentColor"/>
    </g>
  </g>
  <g id="Grupo_42" data-name="Grupo 42" transform="translate(10.771 8.084)">
    <g id="Grupo_41" data-name="Grupo 41">
      <path id="Trazado_50" data-name="Trazado 50" d="M35.562,14.514H28.381a.689.689,0,0,0,0,1.378h7.181a.689.689,0,0,0,0-1.378Z" transform="translate(-27.708 -14.514)" fill="currentColor"/>
    </g>
  </g>
  <g id="Grupo_44" data-name="Grupo 44">
    <g id="Grupo_43" data-name="Grupo 43">
      <path id="Trazado_51" data-name="Trazado 51" d="M39.467,19.106H36.55V8.038a.7.7,0,0,0-.2-.487L29.172.2A.665.665,0,0,0,28.7,0H10.026A2.137,2.137,0,0,0,7.916,2.159V37.432a2.137,2.137,0,0,0,2.109,2.159H20.842v1.516A2.864,2.864,0,0,0,23.669,44h15.8a2.864,2.864,0,0,0,2.827-2.894V22A2.864,2.864,0,0,0,39.467,19.106ZM29.369,2.352l4.882,5h-3.4a1.5,1.5,0,0,1-1.481-1.516ZM20.842,22V38.213H10.026a.773.773,0,0,1-.763-.781V2.159a.773.773,0,0,1,.763-.781h18V5.833A2.864,2.864,0,0,0,30.85,8.727H35.2v10.38H23.669A2.864,2.864,0,0,0,20.842,22ZM40.948,41.106a1.5,1.5,0,0,1-1.481,1.516h-15.8a1.5,1.5,0,0,1-1.481-1.516V22a1.5,1.5,0,0,1,1.481-1.516h15.8A1.5,1.5,0,0,1,40.948,22Z" transform="translate(-7.916)" fill="currentColor"/>
    </g>
  </g>
  <g id="Grupo_46" data-name="Grupo 46" transform="translate(15.798 22.046)">
    <g id="Grupo_45" data-name="Grupo 45">
      <path id="Trazado_52" data-name="Trazado 52" d="M51.26,39.582H38.335a1.409,1.409,0,0,0-1.391,1.424v2.939a1.409,1.409,0,0,0,1.391,1.424H51.26a1.409,1.409,0,0,0,1.391-1.424V41.006A1.409,1.409,0,0,0,51.26,39.582Zm.045,4.363a.045.045,0,0,1-.045.046H38.335a.045.045,0,0,1-.045-.046V41.006a.045.045,0,0,1,.045-.046H51.26a.045.045,0,0,1,.045.046v2.939Z" transform="translate(-36.944 -39.582)" fill="currentColor"/>
    </g>
  </g>
  <g id="Grupo_48" data-name="Grupo 48" transform="translate(15.798 30.129)">
    <g id="Grupo_47" data-name="Grupo 47">
      <path id="Trazado_53" data-name="Trazado 53" d="M39.771,54.1H38.335a1.409,1.409,0,0,0-1.391,1.424v1.47a1.409,1.409,0,0,0,1.391,1.424h1.436a1.409,1.409,0,0,0,1.391-1.424V55.52A1.409,1.409,0,0,0,39.771,54.1Zm.045,2.894a.045.045,0,0,1-.045.046H38.335a.045.045,0,0,1-.045-.046V55.52a.045.045,0,0,1,.045-.046h1.436a.045.045,0,0,1,.045.046v1.47Z" transform="translate(-36.944 -54.096)" fill="currentColor"/>
    </g>
  </g>
  <g id="Grupo_50" data-name="Grupo 50" transform="translate(27.287 30.129)">
    <g id="Grupo_49" data-name="Grupo 49">
      <path id="Trazado_54" data-name="Trazado 54" d="M60.882,54.1H59.446a1.409,1.409,0,0,0-1.391,1.424v1.47a1.409,1.409,0,0,0,1.391,1.424h1.436a1.409,1.409,0,0,0,1.391-1.424V55.52A1.409,1.409,0,0,0,60.882,54.1Zm.045,2.894a.045.045,0,0,1-.045.046H59.446a.045.045,0,0,1-.045-.046V55.52a.045.045,0,0,1,.045-.046h1.436a.045.045,0,0,1,.045.046Z" transform="translate(-58.054 -54.096)" fill="currentColor"/>
    </g>
  </g>
  <g id="Grupo_52" data-name="Grupo 52" transform="translate(21.542 30.129)">
    <g id="Grupo_51" data-name="Grupo 51">
      <path id="Trazado_55" data-name="Trazado 55" d="M50.326,54.1H48.89A1.409,1.409,0,0,0,47.5,55.52v1.47a1.409,1.409,0,0,0,1.391,1.424h1.436a1.409,1.409,0,0,0,1.391-1.424V55.52A1.409,1.409,0,0,0,50.326,54.1Zm.045,2.894a.045.045,0,0,1-.045.046H48.89a.045.045,0,0,1-.045-.046V55.52a.045.045,0,0,1,.045-.046h1.436a.045.045,0,0,1,.045.046Z" transform="translate(-47.499 -54.096)" fill="currentColor"/>
    </g>
  </g>
  <g id="Grupo_54" data-name="Grupo 54" transform="translate(15.798 36.008)">
    <g id="Grupo_53" data-name="Grupo 53">
      <path id="Trazado_56" data-name="Trazado 56" d="M39.771,64.651H38.335a1.409,1.409,0,0,0-1.391,1.424v1.47a1.409,1.409,0,0,0,1.391,1.424h1.436a1.409,1.409,0,0,0,1.391-1.424v-1.47A1.409,1.409,0,0,0,39.771,64.651Zm.045,2.894a.045.045,0,0,1-.045.046H38.335a.045.045,0,0,1-.045-.046v-1.47a.045.045,0,0,1,.045-.046h1.436a.045.045,0,0,1,.045.046v1.47Z" transform="translate(-36.944 -64.651)" fill="currentColor"/>
    </g>
  </g>
  <g id="Grupo_56" data-name="Grupo 56" transform="translate(27.287 36.008)">
    <g id="Grupo_55" data-name="Grupo 55">
      <path id="Trazado_57" data-name="Trazado 57" d="M60.882,64.651H59.446a1.409,1.409,0,0,0-1.391,1.424v1.47a1.409,1.409,0,0,0,1.391,1.424h1.436a1.409,1.409,0,0,0,1.391-1.424v-1.47A1.409,1.409,0,0,0,60.882,64.651Zm.045,2.894a.045.045,0,0,1-.045.046H59.446a.045.045,0,0,1-.045-.046v-1.47a.045.045,0,0,1,.045-.046h1.436a.045.045,0,0,1,.045.046Z" transform="translate(-58.054 -64.651)" fill="currentColor"/>
    </g>
  </g>
  <g id="Grupo_58" data-name="Grupo 58" transform="translate(21.542 36.008)">
    <g id="Grupo_57" data-name="Grupo 57">
      <path id="Trazado_58" data-name="Trazado 58" d="M50.326,64.651H48.89A1.409,1.409,0,0,0,47.5,66.075v1.47a1.409,1.409,0,0,0,1.391,1.424h1.436a1.409,1.409,0,0,0,1.391-1.424v-1.47A1.409,1.409,0,0,0,50.326,64.651Zm.045,2.894a.045.045,0,0,1-.045.046H48.89a.045.045,0,0,1-.045-.046v-1.47a.045.045,0,0,1,.045-.046h1.436a.045.045,0,0,1,.045.046Z" transform="translate(-47.499 -64.651)" fill="currentColor"/>
    </g>
  </g>
</svg>
