<svg id="Logo_Facebook" data-name="Logo Facebook" xmlns="http://www.w3.org/2000/svg" width="1em" height="1em" viewBox="0 0 8.598 18.086">
  <path id="Logo_Facebook-2" data-name="Logo Facebook" d="M30.351,0,28.289,0c-2.317,0-3.814,1.747-3.814,4.451V6.5H22.4a.349.349,0,0,0-.324.369V9.845a.349.349,0,0,0,.324.369h2.074v7.5a.349.349,0,0,0,.324.369H27.5a.349.349,0,0,0,.324-.369v-7.5h2.424a.349.349,0,0,0,.324-.369V6.872a.4.4,0,0,0-.095-.261.306.306,0,0,0-.229-.108H27.829V4.763c0-.836.175-1.261,1.133-1.261h1.389a.349.349,0,0,0,.324-.369V.373A.349.349,0,0,0,30.351,0Z" transform="translate(-22.077)" fill="#ca080f"/>
</svg>
