<svg id="linkedin" xmlns="http://www.w3.org/2000/svg" width="1em" height="1em" viewBox="0 0 17.627 17.627">
  <path id="linkedin-2" data-name="linkedin" d="M16.033,0H1.595A1.6,1.6,0,0,0,0,1.595V16.033a1.6,1.6,0,0,0,1.595,1.595H16.033a1.6,1.6,0,0,0,1.595-1.595V1.595A1.6,1.6,0,0,0,16.033,0ZM5.455,15.22a.464.464,0,0,1-.464.464H3.015a.464.464,0,0,1-.464-.464V6.94a.464.464,0,0,1,.464-.464H4.991a.464.464,0,0,1,.464.464ZM4,5.7A1.876,1.876,0,1,1,5.879,3.819,1.877,1.877,0,0,1,4,5.7Zm11.774,9.562a.427.427,0,0,1-.427.427h-2.12a.427.427,0,0,1-.427-.427V11.374c0-.579.17-2.539-1.514-2.539-1.306,0-1.571,1.341-1.624,1.943v4.48a.427.427,0,0,1-.427.427H7.189a.427.427,0,0,1-.427-.427V6.9a.427.427,0,0,1,.427-.427h2.05a.427.427,0,0,1,.427.427v.722A2.91,2.91,0,0,1,12.4,6.337c3.394,0,3.375,3.171,3.375,4.913v4.007Z" fill="#ca080f"/>
</svg>
