<svg xmlns="http://www.w3.org/2000/svg" width="1em" height="1em" viewBox="0 0 14.855 14.855"><path d="M-150.359-121.346a.5.5,0,0,1-.359-.149l-3.707-3.7-.085.07a6.251,6.251,0,0,1-3.953,1.411,6.248,6.248,0,0,1-6.241-6.24,6.249,6.249,0,0,1,6.241-6.241,6.248,6.248,0,0,1,6.241,6.241A6.258,6.258,0,0,1-153.637-126l-.07.085,3.707,3.707a.5.5,0,0,1,.15.358.5.5,0,0,1-.149.358A.5.5,0,0,1-150.359-121.346Zm-8.1-13.834a5.226,5.226,0,0,0-5.221,5.22,5.225,5.225,0,0,0,5.221,5.217,5.225,5.225,0,0,0,5.221-5.217A5.226,5.226,0,0,0-158.463-135.18Z" transform="translate(164.704 136.201)" fill="#006350"/></svg>
