<svg id="Mail_icon" data-name="Mail icon" xmlns="http://www.w3.org/2000/svg" fill="currentColor" width="1em" height="1em" viewBox="0 0 34.643 17.561">
  <path id="Trazado_62" data-name="Trazado 62" d="M77.529,102.807l.039-.009.033-.008.037-.013.032-.012.034-.016.033-.016.031-.018.032-.019.032-.024.027-.02c.016-.013.032-.028.047-.042l.008-.008.008-.009c.014-.015.028-.03.042-.046l.022-.029c.007-.01.015-.02.022-.03s.014-.023.021-.034l.017-.029c.006-.012.011-.023.017-.035s.01-.021.015-.031.009-.023.013-.035.009-.023.012-.034.006-.024.009-.036.006-.023.009-.035,0-.028.007-.043,0-.02,0-.03a.745.745,0,0,0,0-.075V86.011a.751.751,0,0,0-.751-.751H53.7l-.043,0-.034,0-.038.006-.035.007-.036.009-.035.011-.035.013-.032.014-.035.017-.029.016-.034.021-.027.019-.031.024-.028.023-.027.024-.029.029-.014.015-.007.009-.027.034-.019.025-.022.034-.017.029c-.006.011-.012.023-.018.034l-.015.032c0,.011-.009.023-.014.035s-.009.023-.012.034-.007.023-.01.035-.007.024-.009.036,0,.023-.006.034,0,.026-.006.039,0,.022,0,.033,0,.028,0,.042,0,.008,0,.012v4.633a.751.751,0,1,0,1.5,0V87.68l6.68,5.914a.759.759,0,0,0-.1.083l-6.58,6.58V95.319a.751.751,0,1,0-1.5,0v.918H49.084a.751.751,0,0,0,0,1.5h3.882v4.33a.751.751,0,0,0,.751.751H77.383c.025,0,.049,0,.074,0l.034,0Zm-.9-2.551-6.58-6.58-.013-.012,4.947-4.2a.751.751,0,1,0-.972-1.146L65.56,95.493,55.7,86.763H76.631v13.494Zm-14.52-5.517a.749.749,0,0,0,.131-.177l2.81,2.488a.751.751,0,0,0,.984.01l2.864-2.43a.754.754,0,0,0,.089.108l6.58,6.58H55.531Z" transform="translate(-43.491 -85.26)"/>
  <path id="Trazado_63" data-name="Trazado 63" d="M.751,157.179H13.44a.751.751,0,1,0,0-1.5H.751a.751.751,0,1,0,0,1.5Z" transform="translate(0 -148.622)"/>
  <path id="Trazado_64" data-name="Trazado 64" d="M13.876,115.848h5.7a.751.751,0,1,0,0-1.5h-5.7a.751.751,0,1,0,0,1.5Z" transform="translate(-11.81 -111.431)"/>
  <path id="Trazado_65" data-name="Trazado 65" d="M6.261,226.51H.751a.751.751,0,0,0,0,1.5H6.261a.751.751,0,0,0,0-1.5Z" transform="translate(0 -212.361)"/>
</svg>
