<svg xmlns="http://www.w3.org/2000/svg" width="1em" height="1em" viewBox="0 0 18.779 18.52">
  <g id="Support_icon" data-name="Support icon" transform="translate(0.13)">
    <rect id="Rectángulo_5" data-name="Rectángulo 5" width="18.52" height="18.52" fill="none"/>
    <path id="Trazado_23" data-name="Trazado 23" d="M582.71,262.293a.741.741,0,1,0-1.482,0v5.556a.741.741,0,1,0,1.482,0Z" transform="translate(-566.412 -254.886)" fill="none" stroke="#c82c2e" stroke-miterlimit="10" stroke-width="1"/>
    <path id="Trazado_24" data-name="Trazado 24" d="M307.738,626.3a.741.741,0,1,0,0-1.482h-1.852a.741.741,0,0,0,0,1.482Z" transform="translate(-297.366 -608.893)" fill="none" stroke="#c82c2e" stroke-miterlimit="10" stroke-width="1"/>
    <path id="Trazado_25" data-name="Trazado 25" d="M116.246,35.358a6.3,6.3,0,0,1,12.593,0" transform="translate(-113.282 -28.321)" fill="none" stroke="#c82c2e" stroke-miterlimit="10" stroke-width="1"/>
    <path id="Trazado_26" data-name="Trazado 26" d="M639.351,290.614c1.023,0,1.852,1.243,1.852,2.778s-.829,2.778-1.852,2.778" transform="translate(-623.054 -283.206)" fill="none" stroke="#c82c2e" stroke-miterlimit="10" stroke-width="1"/>
    <path id="Trazado_27" data-name="Trazado 27" d="M87.184,262.293a.741.741,0,0,1,1.482,0v5.556a.741.741,0,1,1-1.482,0Z" transform="translate(-84.962 -254.886)" fill="none" stroke="#c82c2e" stroke-miterlimit="10" stroke-width="1"/>
    <path id="Trazado_28" data-name="Trazado 28" d="M16.383,290.614c-1.023,0-1.852,1.243-1.852,2.778s.829,2.778,1.852,2.778" transform="translate(-14.16 -283.206)" fill="none" stroke="#c82c2e" stroke-miterlimit="10" stroke-width="1"/>
    <path id="Trazado_29" data-name="Trazado 29" d="M440.366,537.636A2.726,2.726,0,0,1,437.4,540.6h-1.482" transform="translate(-424.809 -523.932)" fill="none" stroke="#c82c2e" stroke-miterlimit="10" stroke-width="1"/>
  </g>
</svg>
