<svg id="youtube" xmlns="http://www.w3.org/2000/svg" width="1em" height="1em" viewBox="0 0 24.402 17.086">
  <path id="Trazado_73" data-name="Trazado 73" d="M23.9,2.673A3.057,3.057,0,0,0,21.749.523C19.839,0,12.2,0,12.2,0S4.563,0,2.653.5A3.12,3.12,0,0,0,.5,2.673,32.216,32.216,0,0,0,0,8.543a32.1,32.1,0,0,0,.5,5.869,3.058,3.058,0,0,0,2.151,2.151c1.93.523,9.548.523,9.548.523s7.638,0,9.548-.5A3.057,3.057,0,0,0,23.9,14.432a32.217,32.217,0,0,0,.5-5.869A30.578,30.578,0,0,0,23.9,2.673Zm0,0" fill="#ca080f"/>
  <path id="Trazado_74" data-name="Trazado 74" d="M204.969,109.8l6.352-3.658-6.352-3.658Zm0,0" transform="translate(-195.2 -97.6)" fill="#fff"/>
</svg>
